<svg width="18" height="17" viewBox="0 0 18 17" fill="none" xmlns="http://www.w3.org/2000/svg">
<path d="M17.75 10.125V15.125C17.75 15.4565 17.6183 15.7745 17.3839 16.0089C17.1495 16.2433 16.8315 16.375 16.5 16.375H1.5C1.16848 16.375 0.850537 16.2433 0.616116 16.0089C0.381696 15.7745 0.25 15.4565 0.25 15.125V10.125C0.25 9.79348 0.381696 9.47554 0.616116 9.24112C0.850537 9.0067 1.16848 8.875 1.5 8.875H5.25C5.41576 8.875 5.57473 8.94085 5.69194 9.05806C5.80915 9.17527 5.875 9.33424 5.875 9.5C5.875 9.66576 5.80915 9.82474 5.69194 9.94195C5.57473 10.0592 5.41576 10.125 5.25 10.125H1.5V15.125H16.5V10.125H12.75C12.5842 10.125 12.4253 10.0592 12.3081 9.94195C12.1908 9.82474 12.125 9.66576 12.125 9.5C12.125 9.33424 12.1908 9.17527 12.3081 9.05806C12.4253 8.94085 12.5842 8.875 12.75 8.875H16.5C16.8315 8.875 17.1495 9.0067 17.3839 9.24112C17.6183 9.47554 17.75 9.79348 17.75 10.125ZM5.69219 5.56719L8.375 2.8836V9.5C8.375 9.66576 8.44085 9.82474 8.55806 9.94195C8.67527 10.0592 8.83424 10.125 9 10.125C9.16576 10.125 9.32473 10.0592 9.44194 9.94195C9.55915 9.82474 9.625 9.66576 9.625 9.5V2.8836L12.3078 5.56719C12.4251 5.68447 12.5841 5.75035 12.75 5.75035C12.9159 5.75035 13.0749 5.68447 13.1922 5.56719C13.3095 5.44992 13.3753 5.29086 13.3753 5.125C13.3753 4.95915 13.3095 4.80009 13.1922 4.68282L9.44219 0.932816C9.38414 0.874706 9.31521 0.828606 9.23934 0.797153C9.16346 0.765701 9.08213 0.749512 9 0.749512C8.91787 0.749512 8.83654 0.765701 8.76066 0.797153C8.68479 0.828606 8.61586 0.874706 8.55781 0.932816L4.80781 4.68282C4.69054 4.80009 4.62465 4.95915 4.62465 5.125C4.62465 5.29086 4.69054 5.44992 4.80781 5.56719C4.92509 5.68447 5.08415 5.75035 5.25 5.75035C5.41585 5.75035 5.57491 5.68447 5.69219 5.56719ZM14.625 12.625C14.625 12.4396 14.57 12.2583 14.467 12.1042C14.364 11.95 14.2176 11.8298 14.0463 11.7589C13.875 11.6879 13.6865 11.6693 13.5046 11.7055C13.3227 11.7417 13.1557 11.831 13.0246 11.9621C12.8935 12.0932 12.8042 12.2602 12.768 12.4421C12.7318 12.624 12.7504 12.8125 12.8214 12.9838C12.8923 13.1551 13.0125 13.3015 13.1667 13.4045C13.3208 13.5075 13.5021 13.5625 13.6875 13.5625C13.9361 13.5625 14.1746 13.4637 14.3504 13.2879C14.5262 13.1121 14.625 12.8736 14.625 12.625Z" fill="#797986"/>
</svg>
