<svg width="15" height="16" viewBox="0 0 15 16" fill="none" xmlns="http://www.w3.org/2000/svg">
<path d="M7.5 9.875C8.53553 9.875 9.375 9.03553 9.375 8C9.375 6.96447 8.53553 6.125 7.5 6.125C6.46447 6.125 5.625 6.96447 5.625 8C5.625 9.03553 6.46447 9.875 7.5 9.875Z" stroke="#8E92BC" stroke-width="1.2" stroke-miterlimit="10" stroke-linecap="round" stroke-linejoin="round"/>
<path d="M1.25 8.54999V7.44999C1.25 6.79999 1.78125 6.26249 2.4375 6.26249C3.56875 6.26249 4.03125 5.46249 3.4625 4.48124C3.1375 3.91874 3.33125 3.18749 3.9 2.86249L4.98125 2.24374C5.475 1.94999 6.1125 2.12499 6.40625 2.61874L6.475 2.73749C7.0375 3.71874 7.9625 3.71874 8.53125 2.73749L8.6 2.61874C8.89375 2.12499 9.53125 1.94999 10.025 2.24374L11.1063 2.86249C11.675 3.18749 11.8687 3.91874 11.5437 4.48124C10.975 5.46249 11.4375 6.26249 12.5688 6.26249C13.2188 6.26249 13.7563 6.79374 13.7563 7.44999V8.54999C13.7563 9.19999 13.225 9.73749 12.5688 9.73749C11.4375 9.73749 10.975 10.5375 11.5437 11.5187C11.8687 12.0875 11.675 12.8125 11.1063 13.1375L10.025 13.7562C9.53125 14.05 8.89375 13.875 8.6 13.3812L8.53125 13.2625C7.96875 12.2812 7.04375 12.2812 6.475 13.2625L6.40625 13.3812C6.1125 13.875 5.475 14.05 4.98125 13.7562L3.9 13.1375C3.33125 12.8125 3.1375 12.0812 3.4625 11.5187C4.03125 10.5375 3.56875 9.73749 2.4375 9.73749C1.78125 9.73749 1.25 9.19999 1.25 8.54999Z" stroke="#8E92BC" stroke-width="1.2" stroke-miterlimit="10" stroke-linecap="round" stroke-linejoin="round"/>
</svg>
