<svg width="17" height="16" viewBox="0 0 17 16" fill="none" xmlns="http://www.w3.org/2000/svg">
<path d="M14.1638 8.35375L9.66381 12.8538C9.56999 12.9476 9.44274 13.0003 9.31006 13.0003C9.17738 13.0003 9.05013 12.9476 8.95631 12.8538C8.86249 12.7599 8.80978 12.6327 8.80978 12.5C8.80978 12.3673 8.86249 12.2401 8.95631 12.1463L12.6032 8.5H2.81006C2.67745 8.5 2.55027 8.44733 2.45651 8.35356C2.36274 8.25979 2.31006 8.13261 2.31006 8C2.31006 7.86739 2.36274 7.74022 2.45651 7.64645C2.55027 7.55268 2.67745 7.5 2.81006 7.5H12.6032L8.95631 3.85375C8.86249 3.75993 8.80978 3.63269 8.80978 3.5C8.80978 3.36732 8.86249 3.24007 8.95631 3.14625C9.05013 3.05243 9.17738 2.99973 9.31006 2.99973C9.44274 2.99973 9.56999 3.05243 9.66381 3.14625L14.1638 7.64625C14.2103 7.69269 14.2472 7.74783 14.2723 7.80853C14.2975 7.86923 14.3105 7.9343 14.3105 8C14.3105 8.06571 14.2975 8.13077 14.2723 8.19147C14.2472 8.25217 14.2103 8.30732 14.1638 8.35375Z" fill="white"/>
</svg>
