<svg width="15" height="16" viewBox="0 0 15 16" fill="none" xmlns="http://www.w3.org/2000/svg">
<path d="M5.7251 7.29375C5.6626 7.2875 5.5876 7.2875 5.51885 7.29375C4.03135 7.24375 2.8501 6.025 2.8501 4.525C2.8501 2.99375 4.0876 1.75 5.6251 1.75C7.15635 1.75 8.4001 2.99375 8.4001 4.525C8.39385 6.025 7.2126 7.24375 5.7251 7.29375Z" stroke="#8E92BC" stroke-width="1.2" stroke-linecap="round" stroke-linejoin="round"/>
<path d="M10.2561 3C11.4686 3 12.4436 3.98125 12.4436 5.1875C12.4436 6.36875 11.5061 7.33125 10.3373 7.375C10.2873 7.36875 10.2311 7.36875 10.1748 7.375" stroke="#8E92BC" stroke-width="1.2" stroke-linecap="round" stroke-linejoin="round"/>
<path d="M2.6002 9.6C1.0877 10.6125 1.0877 12.2625 2.6002 13.2687C4.31895 14.4187 7.1377 14.4187 8.85645 13.2687C10.3689 12.2562 10.3689 10.6063 8.85645 9.6C7.14395 8.45625 4.3252 8.45625 2.6002 9.6Z" stroke="#8E92BC" stroke-width="1.2" stroke-linecap="round" stroke-linejoin="round"/>
<path d="M11.4624 13C11.9124 12.9062 12.3374 12.725 12.6874 12.4562C13.6624 11.725 13.6624 10.5187 12.6874 9.7875C12.3437 9.525 11.9249 9.35 11.4812 9.25" stroke="#8E92BC" stroke-width="1.2" stroke-linecap="round" stroke-linejoin="round"/>
</svg>
