<svg width="15" height="17" viewBox="0 0 15 17" fill="none" xmlns="http://www.w3.org/2000/svg">
<path d="M5.70763 4.50117C5.9139 3.84948 6.8361 3.84947 7.04237 4.50117L7.14001 4.80966C7.62128 6.33019 8.81245 7.52137 10.333 8.00264L10.6415 8.10028C11.2932 8.30655 11.2932 9.22875 10.6415 9.43502L10.333 9.53266C8.81245 10.0139 7.62128 11.2051 7.14001 12.7256L7.04237 13.0341C6.8361 13.6858 5.9139 13.6858 5.70763 13.0341L5.60999 12.7256C5.12873 11.2051 3.93755 10.0139 2.41701 9.53266L2.10852 9.43502C1.45683 9.22875 1.45683 8.30655 2.10852 8.10028L2.41701 8.00264C3.93755 7.52137 5.12872 6.33019 5.60999 4.80966L5.70763 4.50117Z" fill="#8E92BC"/>
<path d="M11.7242 1.23726C11.826 0.915564 12.2812 0.915564 12.383 1.23726C12.6206 1.98785 13.2086 2.57585 13.9592 2.81342C14.2809 2.91524 14.2809 3.37047 13.9592 3.47229C13.2086 3.70986 12.6206 4.29786 12.383 5.04845C12.2812 5.37015 11.826 5.37015 11.7242 5.04845C11.4866 4.29786 10.8986 3.70986 10.148 3.47229C9.82631 3.37047 9.82631 2.91524 10.148 2.81342C10.8986 2.57585 11.4866 1.98785 11.7242 1.23726Z" fill="#8E92BC"/>
<path d="M11.7242 11.9515C11.826 11.6298 12.2812 11.6298 12.383 11.9515C12.6206 12.7021 13.2086 13.2901 13.9592 13.5277C14.2809 13.6295 14.2809 14.0847 13.9592 14.1866C13.2086 14.4241 12.6206 15.0121 12.383 15.7627C12.2812 16.0844 11.826 16.0844 11.7242 15.7627C11.4866 15.0121 10.8986 14.4241 10.148 14.1866C9.82631 14.0847 9.82631 13.6295 10.148 13.5277C10.8986 13.2901 11.4866 12.7021 11.7242 11.9515Z" fill="#8E92BC"/>
</svg>
